<mxfile host="app.diagrams.net" modified="2022-12-18T15:16:52.700Z" agent="5.0 (X11; Linux x86_64) AppleWebKit/537.36 (KHTML, like Gecko) Chrome/108.0.0.0 Safari/537.36" etag="yV87sQiYOPicqB5HXlYn" version="20.6.2" type="github">
  <diagram name="Page-1" id="42789a77-a242-8287-6e28-9cd8cfd52e62">
    <mxGraphModel dx="2062" dy="763" grid="1" gridSize="10" guides="1" tooltips="1" connect="1" arrows="1" fold="1" page="1" pageScale="1" pageWidth="1100" pageHeight="850" background="none" math="0" shadow="0">
      <root>
        <mxCell id="0" />
        <mxCell id="1" parent="0" />
        <mxCell id="1ea317790d2ca983-12" style="edgeStyle=none;rounded=1;html=1;labelBackgroundColor=none;startArrow=none;startFill=0;startSize=5;endArrow=classicThin;endFill=1;endSize=5;jettySize=auto;orthogonalLoop=1;strokeColor=#000000;strokeWidth=1;fontFamily=Verdana;fontSize=12" parent="1" source="1ea317790d2ca983-1" target="1ea317790d2ca983-2" edge="1">
          <mxGeometry relative="1" as="geometry" />
        </mxCell>
        <mxCell id="B4QfEkcnvkNHthdZRwpX-30" style="edgeStyle=none;rounded=0;orthogonalLoop=1;jettySize=auto;html=1;exitX=0.5;exitY=1;exitDx=0;exitDy=0;entryX=0.5;entryY=0;entryDx=0;entryDy=0;" edge="1" parent="1" source="1ea317790d2ca983-1" target="B4QfEkcnvkNHthdZRwpX-29">
          <mxGeometry relative="1" as="geometry">
            <Array as="points">
              <mxPoint x="620" y="210" />
            </Array>
          </mxGeometry>
        </mxCell>
        <mxCell id="B4QfEkcnvkNHthdZRwpX-54" style="edgeStyle=none;rounded=0;orthogonalLoop=1;jettySize=auto;html=1;exitX=1;exitY=1;exitDx=0;exitDy=0;entryX=0.3;entryY=0;entryDx=0;entryDy=0;entryPerimeter=0;" edge="1" parent="1" source="1ea317790d2ca983-1" target="1ea317790d2ca983-3">
          <mxGeometry relative="1" as="geometry" />
        </mxCell>
        <mxCell id="B4QfEkcnvkNHthdZRwpX-55" style="edgeStyle=none;rounded=0;orthogonalLoop=1;jettySize=auto;html=1;exitX=0;exitY=0.5;exitDx=0;exitDy=0;entryX=1;entryY=0.5;entryDx=0;entryDy=0;" edge="1" parent="1" source="1ea317790d2ca983-1" target="1ea317790d2ca983-9">
          <mxGeometry relative="1" as="geometry" />
        </mxCell>
        <mxCell id="1ea317790d2ca983-1" value="Investigación tecnológica" style="ellipse;whiteSpace=wrap;html=1;rounded=0;shadow=1;comic=0;labelBackgroundColor=none;strokeWidth=1;fontFamily=Verdana;fontSize=12;align=center;" parent="1" vertex="1">
          <mxGeometry x="450" y="80" width="180" height="60" as="geometry" />
        </mxCell>
        <mxCell id="B4QfEkcnvkNHthdZRwpX-18" value="de acuerdo a" style="edgeStyle=none;rounded=0;orthogonalLoop=1;jettySize=auto;html=1;" edge="1" parent="1" source="1ea317790d2ca983-2" target="B4QfEkcnvkNHthdZRwpX-17">
          <mxGeometry relative="1" as="geometry" />
        </mxCell>
        <mxCell id="B4QfEkcnvkNHthdZRwpX-21" style="edgeStyle=none;rounded=0;orthogonalLoop=1;jettySize=auto;html=1;" edge="1" parent="1" source="1ea317790d2ca983-2" target="B4QfEkcnvkNHthdZRwpX-20">
          <mxGeometry relative="1" as="geometry" />
        </mxCell>
        <mxCell id="B4QfEkcnvkNHthdZRwpX-22" value="de acuerdo al" style="edgeLabel;html=1;align=center;verticalAlign=middle;resizable=0;points=[];" vertex="1" connectable="0" parent="B4QfEkcnvkNHthdZRwpX-21">
          <mxGeometry x="0.2337" y="-2" relative="1" as="geometry">
            <mxPoint y="-1" as="offset" />
          </mxGeometry>
        </mxCell>
        <mxCell id="1ea317790d2ca983-2" value="&lt;span&gt;Modalidades&lt;/span&gt;" style="ellipse;whiteSpace=wrap;html=1;rounded=0;shadow=1;comic=0;labelBackgroundColor=none;strokeWidth=1;fontFamily=Verdana;fontSize=12;align=center;" parent="1" vertex="1">
          <mxGeometry x="475" y="200" width="122.5" height="50" as="geometry" />
        </mxCell>
        <mxCell id="B4QfEkcnvkNHthdZRwpX-24" style="edgeStyle=none;rounded=0;orthogonalLoop=1;jettySize=auto;html=1;" edge="1" parent="1" source="1ea317790d2ca983-3" target="B4QfEkcnvkNHthdZRwpX-23">
          <mxGeometry relative="1" as="geometry" />
        </mxCell>
        <mxCell id="1ea317790d2ca983-3" value="&lt;span&gt;El proceso&lt;/span&gt;" style="ellipse;whiteSpace=wrap;html=1;rounded=0;shadow=1;comic=0;labelBackgroundColor=none;strokeWidth=1;fontFamily=Verdana;fontSize=12;align=center;" parent="1" vertex="1">
          <mxGeometry x="720" y="290" width="130" height="50" as="geometry" />
        </mxCell>
        <mxCell id="B4QfEkcnvkNHthdZRwpX-2" value="" style="rounded=0;orthogonalLoop=1;jettySize=auto;html=1;" edge="1" parent="1" source="1ea317790d2ca983-9" target="B4QfEkcnvkNHthdZRwpX-1">
          <mxGeometry relative="1" as="geometry" />
        </mxCell>
        <mxCell id="B4QfEkcnvkNHthdZRwpX-4" value="" style="rounded=0;orthogonalLoop=1;jettySize=auto;html=1;" edge="1" parent="1" source="1ea317790d2ca983-9" target="B4QfEkcnvkNHthdZRwpX-3">
          <mxGeometry relative="1" as="geometry" />
        </mxCell>
        <mxCell id="B4QfEkcnvkNHthdZRwpX-6" value="" style="rounded=0;orthogonalLoop=1;jettySize=auto;html=1;entryX=0.891;entryY=0.12;entryDx=0;entryDy=0;entryPerimeter=0;" edge="1" parent="1" source="1ea317790d2ca983-9" target="B4QfEkcnvkNHthdZRwpX-5">
          <mxGeometry relative="1" as="geometry" />
        </mxCell>
        <mxCell id="B4QfEkcnvkNHthdZRwpX-8" value="" style="rounded=0;orthogonalLoop=1;jettySize=auto;html=1;" edge="1" parent="1" source="1ea317790d2ca983-9" target="B4QfEkcnvkNHthdZRwpX-7">
          <mxGeometry relative="1" as="geometry" />
        </mxCell>
        <mxCell id="B4QfEkcnvkNHthdZRwpX-10" value="" style="edgeStyle=none;rounded=0;orthogonalLoop=1;jettySize=auto;html=1;" edge="1" parent="1" source="1ea317790d2ca983-9" target="B4QfEkcnvkNHthdZRwpX-1">
          <mxGeometry relative="1" as="geometry" />
        </mxCell>
        <mxCell id="B4QfEkcnvkNHthdZRwpX-11" style="edgeStyle=none;rounded=0;orthogonalLoop=1;jettySize=auto;html=1;" edge="1" parent="1" source="1ea317790d2ca983-9" target="1ea317790d2ca983-10">
          <mxGeometry relative="1" as="geometry">
            <Array as="points">
              <mxPoint x="210" y="320" />
            </Array>
          </mxGeometry>
        </mxCell>
        <mxCell id="B4QfEkcnvkNHthdZRwpX-12" value="sigue a" style="edgeLabel;html=1;align=center;verticalAlign=middle;resizable=0;points=[];" vertex="1" connectable="0" parent="B4QfEkcnvkNHthdZRwpX-11">
          <mxGeometry x="0.6621" y="-1" relative="1" as="geometry">
            <mxPoint as="offset" />
          </mxGeometry>
        </mxCell>
        <mxCell id="1ea317790d2ca983-9" value="Investigar y transformar" style="ellipse;whiteSpace=wrap;html=1;rounded=0;shadow=1;comic=0;labelBackgroundColor=none;strokeWidth=1;fontFamily=Verdana;fontSize=12;align=center;" parent="1" vertex="1">
          <mxGeometry x="80" y="100" width="175" height="50" as="geometry" />
        </mxCell>
        <mxCell id="1ea317790d2ca983-20" value="es" style="edgeStyle=none;rounded=1;html=1;labelBackgroundColor=none;startArrow=none;startFill=0;startSize=5;endArrow=classicThin;endFill=1;endSize=5;jettySize=auto;orthogonalLoop=1;strokeColor=#B3B3B3;strokeWidth=1;fontFamily=Verdana;fontSize=12" parent="1" source="1ea317790d2ca983-10" target="1ea317790d2ca983-11" edge="1">
          <mxGeometry relative="1" as="geometry" />
        </mxCell>
        <mxCell id="B4QfEkcnvkNHthdZRwpX-14" value="es" style="edgeStyle=none;rounded=0;orthogonalLoop=1;jettySize=auto;html=1;" edge="1" parent="1" source="1ea317790d2ca983-10" target="B4QfEkcnvkNHthdZRwpX-13">
          <mxGeometry relative="1" as="geometry" />
        </mxCell>
        <mxCell id="B4QfEkcnvkNHthdZRwpX-16" value="trabaja con la" style="edgeStyle=none;rounded=0;orthogonalLoop=1;jettySize=auto;html=1;" edge="1" parent="1" source="1ea317790d2ca983-10" target="B4QfEkcnvkNHthdZRwpX-15">
          <mxGeometry relative="1" as="geometry">
            <Array as="points">
              <mxPoint x="330" y="460" />
            </Array>
          </mxGeometry>
        </mxCell>
        <mxCell id="1ea317790d2ca983-10" value="&lt;span&gt;Las particularidades&lt;/span&gt;" style="ellipse;whiteSpace=wrap;html=1;rounded=0;shadow=1;comic=0;labelBackgroundColor=none;strokeWidth=1;fontFamily=Verdana;fontSize=12;align=center;" parent="1" vertex="1">
          <mxGeometry x="90" y="440" width="145" height="50" as="geometry" />
        </mxCell>
        <mxCell id="1ea317790d2ca983-11" value="&lt;span&gt;Quehacer investigativo instrumental&lt;/span&gt;" style="ellipse;whiteSpace=wrap;html=1;rounded=0;shadow=1;comic=0;labelBackgroundColor=none;strokeWidth=1;fontFamily=Verdana;fontSize=12;align=center;" parent="1" vertex="1">
          <mxGeometry x="45" y="600" width="215" height="50" as="geometry" />
        </mxCell>
        <mxCell id="B4QfEkcnvkNHthdZRwpX-1" value="Diseño de la investigación" style="ellipse;whiteSpace=wrap;html=1;rounded=0;shadow=1;comic=0;labelBackgroundColor=none;strokeWidth=1;fontFamily=Verdana;fontSize=12;align=center;" vertex="1" parent="1">
          <mxGeometry y="270" width="175" height="40" as="geometry" />
        </mxCell>
        <mxCell id="B4QfEkcnvkNHthdZRwpX-3" value="Acopio de datos" style="ellipse;whiteSpace=wrap;html=1;rounded=0;shadow=1;comic=0;labelBackgroundColor=none;strokeWidth=1;fontFamily=Verdana;fontSize=12;align=center;" vertex="1" parent="1">
          <mxGeometry x="220" y="310" width="175" height="50" as="geometry" />
        </mxCell>
        <mxCell id="B4QfEkcnvkNHthdZRwpX-5" value="Procesamiento de datos" style="ellipse;whiteSpace=wrap;html=1;rounded=0;shadow=1;comic=0;labelBackgroundColor=none;strokeWidth=1;fontFamily=Verdana;fontSize=12;align=center;" vertex="1" parent="1">
          <mxGeometry x="20" y="320" width="175" height="50" as="geometry" />
        </mxCell>
        <mxCell id="B4QfEkcnvkNHthdZRwpX-7" value="Comunicación de resultados" style="ellipse;whiteSpace=wrap;html=1;rounded=0;shadow=1;comic=0;labelBackgroundColor=none;strokeWidth=1;fontFamily=Verdana;fontSize=12;align=center;" vertex="1" parent="1">
          <mxGeometry x="260" y="230" width="175" height="50" as="geometry" />
        </mxCell>
        <mxCell id="B4QfEkcnvkNHthdZRwpX-13" value="&lt;span&gt;Cognoscitivo&lt;/span&gt;" style="ellipse;whiteSpace=wrap;html=1;rounded=0;shadow=1;comic=0;labelBackgroundColor=none;strokeWidth=1;fontFamily=Verdana;fontSize=12;align=center;" vertex="1" parent="1">
          <mxGeometry x="205" y="540" width="145" height="50" as="geometry" />
        </mxCell>
        <mxCell id="B4QfEkcnvkNHthdZRwpX-15" value="realidad específica" style="ellipse;whiteSpace=wrap;html=1;rounded=0;shadow=1;comic=0;labelBackgroundColor=none;strokeWidth=1;fontFamily=Verdana;fontSize=12;align=center;" vertex="1" parent="1">
          <mxGeometry x="330" y="470" width="145" height="50" as="geometry" />
        </mxCell>
        <mxCell id="B4QfEkcnvkNHthdZRwpX-17" value="&lt;span&gt;uso de la información&lt;/span&gt;" style="ellipse;whiteSpace=wrap;html=1;rounded=0;shadow=1;comic=0;labelBackgroundColor=none;strokeWidth=1;fontFamily=Verdana;fontSize=12;align=center;" vertex="1" parent="1">
          <mxGeometry x="390" y="380" width="122.5" height="50" as="geometry" />
        </mxCell>
        <mxCell id="B4QfEkcnvkNHthdZRwpX-20" value="conocimiento que se genera" style="ellipse;whiteSpace=wrap;html=1;rounded=0;shadow=1;comic=0;labelBackgroundColor=none;strokeWidth=1;fontFamily=Verdana;fontSize=12;align=center;" vertex="1" parent="1">
          <mxGeometry x="507.5" y="430" width="122.5" height="50" as="geometry" />
        </mxCell>
        <mxCell id="B4QfEkcnvkNHthdZRwpX-26" style="edgeStyle=none;rounded=0;orthogonalLoop=1;jettySize=auto;html=1;" edge="1" parent="1" source="B4QfEkcnvkNHthdZRwpX-23" target="B4QfEkcnvkNHthdZRwpX-25">
          <mxGeometry relative="1" as="geometry" />
        </mxCell>
        <mxCell id="B4QfEkcnvkNHthdZRwpX-23" value="&lt;span&gt;Invención&lt;/span&gt;" style="ellipse;whiteSpace=wrap;html=1;rounded=0;shadow=1;comic=0;labelBackgroundColor=none;strokeWidth=1;fontFamily=Verdana;fontSize=12;align=center;" vertex="1" parent="1">
          <mxGeometry x="880" y="260" width="110" height="50" as="geometry" />
        </mxCell>
        <mxCell id="B4QfEkcnvkNHthdZRwpX-28" value="" style="edgeStyle=none;rounded=0;orthogonalLoop=1;jettySize=auto;html=1;" edge="1" parent="1" source="B4QfEkcnvkNHthdZRwpX-25" target="B4QfEkcnvkNHthdZRwpX-27">
          <mxGeometry relative="1" as="geometry" />
        </mxCell>
        <mxCell id="B4QfEkcnvkNHthdZRwpX-25" value="&lt;span&gt;Diseño&lt;/span&gt;" style="ellipse;whiteSpace=wrap;html=1;rounded=0;shadow=1;comic=0;labelBackgroundColor=none;strokeWidth=1;fontFamily=Verdana;fontSize=12;align=center;" vertex="1" parent="1">
          <mxGeometry x="940" y="330" width="110" height="50" as="geometry" />
        </mxCell>
        <mxCell id="B4QfEkcnvkNHthdZRwpX-27" value="&lt;span&gt;Innovación&lt;/span&gt;" style="ellipse;whiteSpace=wrap;html=1;rounded=0;shadow=1;comic=0;labelBackgroundColor=none;strokeWidth=1;fontFamily=Verdana;fontSize=12;align=center;" vertex="1" parent="1">
          <mxGeometry x="940" y="410" width="110" height="50" as="geometry" />
        </mxCell>
        <mxCell id="B4QfEkcnvkNHthdZRwpX-32" value="" style="edgeStyle=none;rounded=0;orthogonalLoop=1;jettySize=auto;html=1;" edge="1" parent="1" source="B4QfEkcnvkNHthdZRwpX-29" target="B4QfEkcnvkNHthdZRwpX-31">
          <mxGeometry relative="1" as="geometry" />
        </mxCell>
        <mxCell id="B4QfEkcnvkNHthdZRwpX-33" value="" style="edgeStyle=none;rounded=0;orthogonalLoop=1;jettySize=auto;html=1;" edge="1" parent="1" source="B4QfEkcnvkNHthdZRwpX-29" target="B4QfEkcnvkNHthdZRwpX-31">
          <mxGeometry relative="1" as="geometry" />
        </mxCell>
        <mxCell id="B4QfEkcnvkNHthdZRwpX-36" value="determinar el" style="edgeStyle=none;rounded=0;orthogonalLoop=1;jettySize=auto;html=1;" edge="1" parent="1" source="B4QfEkcnvkNHthdZRwpX-29" target="B4QfEkcnvkNHthdZRwpX-34">
          <mxGeometry relative="1" as="geometry" />
        </mxCell>
        <mxCell id="B4QfEkcnvkNHthdZRwpX-39" value="" style="edgeStyle=none;rounded=0;orthogonalLoop=1;jettySize=auto;html=1;" edge="1" parent="1" source="B4QfEkcnvkNHthdZRwpX-29" target="B4QfEkcnvkNHthdZRwpX-37">
          <mxGeometry relative="1" as="geometry" />
        </mxCell>
        <mxCell id="B4QfEkcnvkNHthdZRwpX-41" style="edgeStyle=none;rounded=0;orthogonalLoop=1;jettySize=auto;html=1;exitX=0.5;exitY=1;exitDx=0;exitDy=0;" edge="1" parent="1" source="B4QfEkcnvkNHthdZRwpX-29" target="B4QfEkcnvkNHthdZRwpX-40">
          <mxGeometry relative="1" as="geometry" />
        </mxCell>
        <mxCell id="B4QfEkcnvkNHthdZRwpX-43" value="elaborar el" style="edgeStyle=none;rounded=0;orthogonalLoop=1;jettySize=auto;html=1;exitX=1;exitY=1;exitDx=0;exitDy=0;entryX=0.5;entryY=0;entryDx=0;entryDy=0;" edge="1" parent="1" source="B4QfEkcnvkNHthdZRwpX-29" target="B4QfEkcnvkNHthdZRwpX-42">
          <mxGeometry relative="1" as="geometry" />
        </mxCell>
        <mxCell id="B4QfEkcnvkNHthdZRwpX-49" style="edgeStyle=none;rounded=0;orthogonalLoop=1;jettySize=auto;html=1;exitX=1;exitY=0;exitDx=0;exitDy=0;entryX=0;entryY=1;entryDx=0;entryDy=0;" edge="1" parent="1" source="B4QfEkcnvkNHthdZRwpX-29" target="B4QfEkcnvkNHthdZRwpX-46">
          <mxGeometry relative="1" as="geometry" />
        </mxCell>
        <mxCell id="B4QfEkcnvkNHthdZRwpX-50" style="edgeStyle=none;rounded=0;orthogonalLoop=1;jettySize=auto;html=1;" edge="1" parent="1" source="B4QfEkcnvkNHthdZRwpX-29" target="B4QfEkcnvkNHthdZRwpX-45">
          <mxGeometry relative="1" as="geometry" />
        </mxCell>
        <mxCell id="B4QfEkcnvkNHthdZRwpX-51" style="edgeStyle=none;rounded=0;orthogonalLoop=1;jettySize=auto;html=1;entryX=-0.01;entryY=0.64;entryDx=0;entryDy=0;entryPerimeter=0;" edge="1" parent="1" source="B4QfEkcnvkNHthdZRwpX-29" target="B4QfEkcnvkNHthdZRwpX-44">
          <mxGeometry relative="1" as="geometry" />
        </mxCell>
        <mxCell id="B4QfEkcnvkNHthdZRwpX-52" style="edgeStyle=none;rounded=0;orthogonalLoop=1;jettySize=auto;html=1;exitX=0;exitY=0.5;exitDx=0;exitDy=0;entryX=1;entryY=0.5;entryDx=0;entryDy=0;" edge="1" parent="1" source="B4QfEkcnvkNHthdZRwpX-29" target="B4QfEkcnvkNHthdZRwpX-47">
          <mxGeometry relative="1" as="geometry" />
        </mxCell>
        <mxCell id="B4QfEkcnvkNHthdZRwpX-53" style="edgeStyle=none;rounded=0;orthogonalLoop=1;jettySize=auto;html=1;exitX=0;exitY=1;exitDx=0;exitDy=0;entryX=1;entryY=0.5;entryDx=0;entryDy=0;" edge="1" parent="1" source="B4QfEkcnvkNHthdZRwpX-29" target="B4QfEkcnvkNHthdZRwpX-48">
          <mxGeometry relative="1" as="geometry" />
        </mxCell>
        <mxCell id="B4QfEkcnvkNHthdZRwpX-29" value="&lt;span&gt;Las etapas&lt;/span&gt;" style="ellipse;whiteSpace=wrap;html=1;rounded=0;shadow=1;comic=0;labelBackgroundColor=none;strokeWidth=1;fontFamily=Verdana;fontSize=12;align=center;" vertex="1" parent="1">
          <mxGeometry x="625" y="580" width="130" height="50" as="geometry" />
        </mxCell>
        <mxCell id="B4QfEkcnvkNHthdZRwpX-31" value="observar" style="ellipse;whiteSpace=wrap;html=1;rounded=0;shadow=1;comic=0;labelBackgroundColor=none;strokeWidth=1;fontFamily=Verdana;fontSize=12;align=center;" vertex="1" parent="1">
          <mxGeometry x="512.5" y="760" width="100" height="50" as="geometry" />
        </mxCell>
        <mxCell id="B4QfEkcnvkNHthdZRwpX-34" value="problema" style="ellipse;whiteSpace=wrap;html=1;rounded=0;shadow=1;comic=0;labelBackgroundColor=none;strokeWidth=1;fontFamily=Verdana;fontSize=12;align=center;" vertex="1" parent="1">
          <mxGeometry x="640" y="770" width="100" height="50" as="geometry" />
        </mxCell>
        <mxCell id="B4QfEkcnvkNHthdZRwpX-37" value="documentarse" style="ellipse;whiteSpace=wrap;html=1;rounded=0;shadow=1;comic=0;labelBackgroundColor=none;strokeWidth=1;fontFamily=Verdana;fontSize=12;align=center;" vertex="1" parent="1">
          <mxGeometry x="750" y="780" width="100" height="50" as="geometry" />
        </mxCell>
        <mxCell id="B4QfEkcnvkNHthdZRwpX-40" value="reflexionar" style="ellipse;whiteSpace=wrap;html=1;rounded=0;shadow=1;comic=0;labelBackgroundColor=none;strokeWidth=1;fontFamily=Verdana;fontSize=12;align=center;" vertex="1" parent="1">
          <mxGeometry x="790" y="460" width="100" height="50" as="geometry" />
        </mxCell>
        <mxCell id="B4QfEkcnvkNHthdZRwpX-42" value="proyecto de intervención" style="ellipse;whiteSpace=wrap;html=1;rounded=0;shadow=1;comic=0;labelBackgroundColor=none;strokeWidth=1;fontFamily=Verdana;fontSize=12;align=center;" vertex="1" parent="1">
          <mxGeometry x="860" y="770" width="100" height="50" as="geometry" />
        </mxCell>
        <mxCell id="B4QfEkcnvkNHthdZRwpX-44" value="valorar" style="ellipse;whiteSpace=wrap;html=1;rounded=0;shadow=1;comic=0;labelBackgroundColor=none;strokeWidth=1;fontFamily=Verdana;fontSize=12;align=center;" vertex="1" parent="1">
          <mxGeometry x="920" y="650" width="100" height="50" as="geometry" />
        </mxCell>
        <mxCell id="B4QfEkcnvkNHthdZRwpX-45" value="comunicar" style="ellipse;whiteSpace=wrap;html=1;rounded=0;shadow=1;comic=0;labelBackgroundColor=none;strokeWidth=1;fontFamily=Verdana;fontSize=12;align=center;" vertex="1" parent="1">
          <mxGeometry x="930" y="580" width="100" height="50" as="geometry" />
        </mxCell>
        <mxCell id="B4QfEkcnvkNHthdZRwpX-46" value="implementar" style="ellipse;whiteSpace=wrap;html=1;rounded=0;shadow=1;comic=0;labelBackgroundColor=none;strokeWidth=1;fontFamily=Verdana;fontSize=12;align=center;" vertex="1" parent="1">
          <mxGeometry x="870" y="520" width="100" height="50" as="geometry" />
        </mxCell>
        <mxCell id="B4QfEkcnvkNHthdZRwpX-47" value="seguimiento" style="ellipse;whiteSpace=wrap;html=1;rounded=0;shadow=1;comic=0;labelBackgroundColor=none;strokeWidth=1;fontFamily=Verdana;fontSize=12;align=center;" vertex="1" parent="1">
          <mxGeometry x="450" y="600" width="100" height="50" as="geometry" />
        </mxCell>
        <mxCell id="B4QfEkcnvkNHthdZRwpX-48" value="evaluación" style="ellipse;whiteSpace=wrap;html=1;rounded=0;shadow=1;comic=0;labelBackgroundColor=none;strokeWidth=1;fontFamily=Verdana;fontSize=12;align=center;" vertex="1" parent="1">
          <mxGeometry x="435" y="690" width="100" height="50" as="geometry" />
        </mxCell>
      </root>
    </mxGraphModel>
  </diagram>
</mxfile>
